<svg xmlns="http://www.w3.org/2000/svg" xmlns:xlink="http://www.w3.org/1999/xlink" id="图层_1" x="0" y="0" version="1.1" viewBox="0 0 500 500" style="enable-background:new 0 0 500 500" xml:space="preserve"><style type="text/css">.st0{fill:#fff}.st1{fill:#dfdfdf}.st2{fill:#076191}.st3{fill:#128fbd}.st4{fill:#348acb}.st5{fill:#f1c51e}.st6{fill:#f19417}.st7{fill:#eb6619}.st8{fill:#eb651a}.st9{fill:#e61f19}.st10{fill:#dd2b15}.st11{fill:#30bcea}.st12{fill:#f4c41f}</style><g><polygon points="165.8 348.6 165.8 348.6 165.8 348.6" class="st0"/><polygon points="205.9 191.1 165.8 191.1 165.8 348.6 205.9 325.5" class="st1"/><polygon points="165.8 348.6 165.8 348.6 165.8 348.6" class="st0"/><polygon points="246 349.1 246 349.1 246 349.1" class="st0"/><polygon points="286.1 191.6 246 191.6 246 349.1 286.1 325.9" class="st1"/><polygon points="246 349.1 246 349.1 246 349.1" class="st0"/><polygon points="326.2 348.6 326.2 348.6 326.2 348.6" class="st0"/><polygon points="366.3 191.1 326.2 191.1 326.2 348.6 366.3 325.5" class="st1"/><polygon points="326.2 348.6 326.2 348.6 326.2 348.6" class="st0"/><g><ellipse id="XMLID_14_" cx="469.6" cy="230.2" class="st2" rx="28.4" ry="28.4" transform="matrix(0.7981 -0.6026 0.6026 0.7981 -43.9088 329.4395)"/><ellipse id="XMLID_13_" cx="454" cy="341.3" class="st3" rx="25.8" ry="25.8" transform="matrix(0.7981 -0.6026 0.6026 0.7981 -113.9676 342.4719)"/><ellipse id="XMLID_12_" cx="386.3" cy="429.3" class="st4" rx="19.7" ry="19.7" transform="matrix(0.7981 -0.6026 0.6026 0.7981 -180.6646 319.4364)"/><ellipse id="XMLID_11_" cx="337" cy="54.6" class="st5" rx="16.6" ry="16.6" transform="matrix(0.7981 -0.6026 0.6026 0.7981 35.1476 214.0663)"/><ellipse id="XMLID_10_" cx="225.7" cy="38.9" class="st6" rx="19.7" ry="19.7" transform="matrix(0.7981 -0.6026 0.6026 0.7981 22.1543 143.8188)"/><ellipse id="XMLID_9_" cx="118.8" cy="82.1" class="st7" rx="26.3" ry="26.3" transform="matrix(0.7981 -0.6026 0.6026 0.7981 -25.4869 88.1946)"/><ellipse id="XMLID_8_" cx="55.1" cy="173.4" class="st8" rx="30.5" ry="30.5" transform="matrix(0.7981 -0.6026 0.6026 0.7981 -93.3768 68.2263)"/><ellipse id="XMLID_7_" cx="35.6" cy="283.9" class="st9" rx="33.6" ry="33.6" transform="matrix(0.7981 -0.6026 0.6026 0.7981 -163.8993 78.7769)"/><ellipse id="XMLID_6_" cx="80.6" cy="387" class="st10" rx="31.6" ry="31.6" transform="matrix(0.7981 -0.6026 0.6026 0.7981 -216.9115 126.7023)"/><ellipse id="XMLID_5_" cx="279" cy="470" class="st11" rx="12.9" ry="12.9" transform="matrix(0.7981 -0.6026 0.6026 0.7981 -226.8514 263.0161)"/><ellipse id="XMLID_4_" cx="173" cy="454.1" class="st11" rx="10.4" ry="10.4" transform="matrix(0.7981 -0.6026 0.6026 0.7981 -238.7173 195.9521)"/><ellipse id="XMLID_3_" cx="426.4" cy="125.9" class="st12" rx="12.4" ry="12.4" transform="matrix(0.7981 -0.6026 0.6026 0.7981 10.2467 282.3565)"/></g><polygon points="165.8 168 125.7 191.1 165.8 214.3 205.9 191.1" class="st0"/><polygon points="246 168.4 205.9 191.6 246 214.7 286.1 191.6" class="st0"/><polygon points="326.2 168 286.1 191.1 326.2 214.3 366.3 191.1" class="st0"/></g></svg>